<svg xmlns="http://www.w3.org/2000/svg" viewBox="0 0 512 512">
  <defs>
    <linearGradient id="grad" x1="0%" y1="0%" x2="100%" y2="100%">
      <stop offset="0%" style="stop-color:#FF8C00;stop-opacity:1" />
      <stop offset="100%" style="stop-color:#FFC300;stop-opacity:1" />
    </linearGradient>
  </defs>
  <rect width="512" height="512" rx="115" fill="url(#grad)"/>
  <path d="M256 120c-75 0-136 61-136 136s61 136 136 136 136-61 136-136-61-136-136-136zm0 40c53 0 96 43 96 96s-43 96-96 96-96-43-96-96 43-96 96-96z" fill="white" opacity="0.9"/>
  <path d="M256 200a56 56 0 100 112 56 56 0 000-112zm0 32a24 24 0 110 48 24 24 0 010-48z" fill="white"/>
  <circle cx="256" cy="256" r="16" fill="white"/>
</svg>
